<svg xmlns="http://www.w3.org/2000/svg" width="24" height="24" viewBox="0 0 24 24">
    <g fill="none" fill-rule="evenodd">
        <g>
            <g>
                <path d="M0 0L24 0 24 24 0 24z" transform="translate(-990.000000, -426.000000) translate(990.000000, 426.000000)"/>
                <path fill="#222A37" fill-rule="nonzero" d="M17 4h4c.552 0 1 .448 1 1v16c0 .552-.448 1-1 1H3c-.552 0-1-.448-1-1V5c0-.552.448-1 1-1h4V2h2v2h6V2h2v2zm3 8H4v8h16v-8zm-5-6H9v2H7V6H4v4h16V6h-3v2h-2V6zm-9 8h2v2H6v-2zm5 0h2v2h-2v-2zm5 0h2v2h-2v-2z" transform="translate(-990.000000, -426.000000) translate(990.000000, 426.000000)"/>
            </g>
        </g>
    </g>
</svg>
