<svg xmlns="http://www.w3.org/2000/svg" width="130.905" height="130.905" viewBox="0 0 130.905 130.905">
  <g id="Group_17002" data-name="Group 17002" transform="translate(-617.547 -277.056)">
    <g id="check" transform="translate(617.547 277.056)">
      <g id="Group_948" data-name="Group 948">
        <g id="Group_947" data-name="Group 947">
          <path id="Path_1039" data-name="Path 1039" d="M65.453,0a65.453,65.453,0,1,0,65.453,65.453A65.524,65.524,0,0,0,65.453,0Zm0,120.766a55.313,55.313,0,1,1,55.313-55.313A55.377,55.377,0,0,1,65.453,120.766Z" fill="#73c976"/>
        </g>
      </g>
      <g id="Group_950" data-name="Group 950" transform="translate(33.769 41.374)">
        <g id="Group_949" data-name="Group 949">
          <path id="Path_1040" data-name="Path 1040" d="M193.792,163.138a5.072,5.072,0,0,0-7.159.345l-30.927,34.055-14.941-15.189a5.069,5.069,0,1,0-7.23,7.108l18.7,19.012a5.063,5.063,0,0,0,3.615,1.516.61.61,0,0,1,.1.005,5.073,5.073,0,0,0,3.655-1.663L194.136,170.3A5.073,5.073,0,0,0,193.792,163.138Z" transform="translate(-132.079 -161.824)" fill="#73c976"/>
        </g>
      </g>
    </g>
  </g>
</svg>
